# xmcd
#
# Track frame offsets: 
#        150
#        17221
#        32976
#        48561
#        64645
#        81364
#        103987
#        123988
#
# Disc length: 2048 seconds
#
# Revision: 0
# Processed by: cddbd v1.5.2PL0 Copyright (c) Steve Scherf et al.
# Submitted via: ExactAudioCopy v0.95b3
#
DISCID=6d07fe08
DTITLE=Anmod - Inner Upheavals [TMCD081]
DYEAR=2016
DGENRE=Death Metal
TTITLE0=It Whistles
TTITLE1=Vertiginousness
TTITLE2=In Its Own Conceit
TTITLE3=Hopelessness
TTITLE4=A Place Of Silence
TTITLE5=Inner Upheavals
TTITLE6=As If...
TTITLE7=A Sentence About Tyranny
EXTD=
EXTT0=
EXTT1=
EXTT2=
EXTT3=
EXTT4=
EXTT5=
EXTT6=
EXTT7=
PLAYORDER=
